<?xml version="1.0" encoding="utf-8"?>
<!-- Generator: Adobe Illustrator 27.2.0, SVG Export Plug-In . SVG Version: 6.00 Build 0)  -->
<svg version="1.1" xmlns="http://www.w3.org/2000/svg" xmlns:xlink="http://www.w3.org/1999/xlink" x="0px" y="0px"
	 viewBox="0 0 1704 259.8" style="enable-background:new 0 0 1704 259.8;" xml:space="preserve">
<style type="text/css">
	.st0{display:none;}
	.st1{display:inline;fill:#898989;}
	.st2{display:inline;}
	.st3{clip-path:url(#SVGID_00000140010117720723554750000015005871633826862764_);fill:#FFFFFF;}
	.st4{clip-path:url(#SVGID_00000140010117720723554750000015005871633826862764_);}
	.st5{fill:#FFFFFF;}
	.st6{font-family:'Avenir-Roman';}
	.st7{font-size:48.2168px;}
	.st8{display:inline;fill:#FFFFFF;}
	.st9{clip-path:url(#SVGID_00000088095278988760307180000009103048920708960921_);}
	.st10{clip-path:url(#SVGID_00000071519726930160726210000002119122422254692239_);fill:#FFFFFF;}
	.st11{clip-path:url(#SVGID_00000152973209073585522620000017403563252679493046_);fill:#102A48;}
	.st12{clip-path:url(#SVGID_00000152973209073585522620000017403563252679493046_);}
	.st13{display:inline;fill:#102A48;}
	.st14{fill:#102A48;}
	.st15{clip-path:url(#SVGID_00000040546508311292251370000002807030304041073571_);}
	.st16{clip-path:url(#SVGID_00000176760653661391731790000003896315742010334618_);fill:#102A48;}
	.st17{clip-path:url(#SVGID_00000006681982111438333170000011335479030628020888_);fill:#102A48;}
	.st18{clip-path:url(#SVGID_00000006681982111438333170000011335479030628020888_);}
	.st19{clip-path:url(#SVGID_00000183224906590813797020000016047060414290815381_);}
	.st20{clip-path:url(#SVGID_00000182512665110413040800000010616513834755275701_);fill:#102A48;}
	.st21{display:inline;fill:none;}
	.st22{display:inline;fill:#0F2A48;}
	.st23{font-family:'Poppins-Medium';}
	.st24{font-size:209px;}
	.st25{clip-path:url(#SVGID_00000044142426173619099550000001381890425574968967_);fill:#FFFFFF;}
	.st26{clip-path:url(#SVGID_00000044142426173619099550000001381890425574968967_);}
	.st27{clip-path:url(#SVGID_00000058571799151225409880000001252154010317910719_);}
	.st28{clip-path:url(#SVGID_00000112600769033404945600000004618571637884807300_);fill:#FFFFFF;}
	.st29{clip-path:url(#SVGID_00000088847739929706592100000018251374258369854120_);fill:#FFFFFF;}
	.st30{clip-path:url(#SVGID_00000088847739929706592100000018251374258369854120_);}
	.st31{clip-path:url(#SVGID_00000142152209381846427560000017596586537369872055_);fill:#102A48;}
	.st32{clip-path:url(#SVGID_00000142152209381846427560000017596586537369872055_);}
	.st33{fill:#0F2A48;}
</style>
<g id="Background" class="st0">
	<rect x="-205.1" y="2.9" class="st1" width="1880.5" height="259.2"/>
</g>
<g id="Old_White" class="st0">
	<g class="st2">
		<defs>
			<rect id="SVGID_1_" x="122" y="-10.6" width="1672" height="242"/>
		</defs>
		<clipPath id="SVGID_00000002344292777496886800000005583986054605724547_">
			<use xlink:href="#SVGID_1_"  style="overflow:visible;"/>
		</clipPath>
		<polygon style="clip-path:url(#SVGID_00000002344292777496886800000005583986054605724547_);fill:#FFFFFF;" points="457.3,35.7 
			561.2,35.7 556.4,52.1 477.3,52.1 464.1,99.3 538.7,99.3 533.9,115.7 459.3,115.7 439.3,186 414.6,186 		"/>
		<polygon style="clip-path:url(#SVGID_00000002344292777496886800000005583986054605724547_);fill:#FFFFFF;" points="574.5,35.7 
			598.2,35.7 555.4,186 531.8,186 		"/>
		<path style="clip-path:url(#SVGID_00000002344292777496886800000005583986054605724547_);fill:#FFFFFF;" d="M616,73.2h23.6
			L607.6,186h-23.6L616,73.2z M626.7,35.7h23.6l-5.9,20.2h-23.6L626.7,35.7z"/>
		<path style="clip-path:url(#SVGID_00000002344292777496886800000005583986054605724547_);fill:#FFFFFF;" d="M735.2,178.8
			c-9.6,33.7-33.8,45.9-64.2,45.9c-9.3,0-45.6,0-41.7-28.2H653c-1.7,10.3,7.9,14.3,20.3,14.3c30.4,0,34.3-17.5,36.3-25.2l4.2-14.7
			h-0.6c-7.6,9.5-23.4,15.1-38.3,15.1c-43.9,0-34.9-41.5-30.7-56.4c8.7-30.5,27.9-59.3,66.2-59.3c16.3,0,27,8.4,27.6,17.3h0.6
			l4.2-14.3h22.5L735.2,178.8z M669.1,129.6c-5.4,18.3-8.2,41.2,15.5,41.2c25.6,0,36-18.1,42.5-41.2c6.2-21.9,7.6-44.2-17.7-44.2
			C687.4,85.4,676.7,102.6,669.1,129.6"/>
		<path style="clip-path:url(#SVGID_00000002344292777496886800000005583986054605724547_);fill:#FFFFFF;" d="M803.1,35.7h23.6
			L812.4,86h0.6c8.7-9.3,27.3-15.8,40.8-15.8c38.8,0,32.4,22.5,28.7,35.8l-22.8,80H836l22.2-77.9c2.3-8.6,5.6-22.7-15.8-22.7
			c-12.7,0-31.8,6.3-36.3,22.7L784,186h-23.6L803.1,35.7z"/>
		<path style="clip-path:url(#SVGID_00000002344292777496886800000005583986054605724547_);fill:#FFFFFF;" d="M931.9,40.3h23.6
			l-9.3,32.8h26.2l-3.9,13.9h-26.2l-20.6,72.4c-2.5,9-0.6,12.6,11.8,12.6c5.1,0,7.9-0.4,10.7-0.6L940,186c-3.1,0.4-9.6,1.3-19.4,1.3
			c-24.5,0-28.4-7.6-24.2-22.3l22.2-77.9h-22l3.9-13.9h22L931.9,40.3z"/>
		<polygon style="clip-path:url(#SVGID_00000002344292777496886800000005583986054605724547_);fill:#FFFFFF;" points="997.7,35.7 
			1022.5,35.7 984.5,169.5 1066.1,169.5 1061.3,186 954.9,186 		"/>
		<path style="clip-path:url(#SVGID_00000002344292777496886800000005583986054605724547_);fill:#FFFFFF;" d="M1145.6,70.2
			c43.6,0,46.4,27.6,37.4,59.3c-9,31.8-27.9,59.3-71.2,59.3c-43.6,0-46.4-27.6-37.4-59.3C1083.4,97.8,1102.2,70.2,1145.6,70.2
			 M1158.2,129.6c7-24.4,8.2-45.5-17.2-45.5c-23.9,0-34.9,21-41.9,45.5c-7,24.4-8.2,45.4,16,45.4
			C1140.2,175,1151.2,154,1158.2,129.6"/>
		<path style="clip-path:url(#SVGID_00000002344292777496886800000005583986054605724547_);fill:#FFFFFF;" d="M1288.5,178.8
			c-9.6,33.7-33.8,45.9-64.2,45.9c-9.3,0-45.6,0-41.7-28.2h23.6c-1.7,10.3,7.9,14.3,20.3,14.3c30.4,0,34.3-17.5,36.3-25.2l4.2-14.7
			h-0.6c-7.6,9.5-23.4,15.1-38.3,15.1c-43.9,0-34.9-41.5-30.7-56.4c8.7-30.5,27.9-59.3,66.2-59.3c16.3,0,27,8.4,27.6,17.3h0.6
			l4.2-14.3h22.5L1288.5,178.8z M1222.4,129.6c-5.3,18.3-8.2,41.2,15.5,41.2c25.6,0,36-18.1,42.5-41.2c6.2-21.9,7.6-44.2-17.7-44.2
			C1240.7,85.4,1230,102.6,1222.4,129.6"/>
		<path style="clip-path:url(#SVGID_00000002344292777496886800000005583986054605724547_);fill:#FFFFFF;" d="M1414.1,178.8
			c-9.6,33.7-33.8,45.9-64.2,45.9c-9.3,0-45.6,0-41.7-28.2h23.6c-1.7,10.3,7.9,14.3,20.3,14.3c30.4,0,34.3-17.5,36.3-25.2l4.2-14.7
			h-0.6c-7.6,9.5-23.4,15.1-38.3,15.1c-43.9,0-34.9-41.5-30.7-56.4c8.7-30.5,27.9-59.3,66.2-59.3c16.3,0,27,8.4,27.6,17.3h0.6
			l4.2-14.3h22.5L1414.1,178.8z M1347.9,129.6c-5.3,18.3-8.2,41.2,15.5,41.2c25.6,0,36-18.1,42.5-41.2c6.2-21.9,7.6-44.2-17.7-44.2
			C1366.2,85.4,1355.5,102.6,1347.9,129.6"/>
		<path style="clip-path:url(#SVGID_00000002344292777496886800000005583986054605724547_);fill:#FFFFFF;" d="M1473.6,131.7
			c-5.1,17.3-12.4,43.3,16.6,43.3c22.5,0,30.7-17.7,32.9-26.1h23.6c-3.4,12-20.8,40-61.9,40c-36.9,0-47-19.1-36-57.9
			c8.2-28.2,24.8-60.8,71.2-60.8c46.2,0,41.9,30.1,34.9,54.3l-2,7.2H1473.6z M1532.2,117.8l1.7-6.1c3.7-12.6,2.5-27.6-18.3-27.6
			c-24.8,0-34.1,22.7-36,29.5l-1.1,4.2H1532.2z"/>
		<path style="clip-path:url(#SVGID_00000002344292777496886800000005583986054605724547_);fill:#FFFFFF;" d="M1591.5,73.2h23.6
			l-4.8,16.8h0.6c9.9-10.7,21.4-19.8,38.3-19.8c4.8,0,7.9,0.4,10.1,1.3l-5.1,17.3c-2.3-0.2-4.8-0.8-12.4-0.8
			c-11.8,0-33.2,8-38.6,26.7L1583,186h-23.6L1591.5,73.2z"/>
		<g style="clip-path:url(#SVGID_00000002344292777496886800000005583986054605724547_);">
			<text transform="matrix(1 0 0 1 1663.345 69.6167)" class="st5 st6 st7">®</text>
		</g>
		
			<g id="MyFlightLogger_plane.psd_00000178202165435071490600000014018741015876215187_" style="clip-path:url(#SVGID_00000002344292777496886800000005583986054605724547_);">
			
				<image style="overflow:visible;" width="3188" height="3188" id="Layer_1_00000118376841124378538710000004021320813025493161_" xlink:href="D74C95450CCCEF08.png"  transform="matrix(6.077436e-02 0 0 6.077436e-02 -162.9044 31.6729)">
			</image>
		</g>
	</g>
	<rect x="371.3" y="1.3" class="st8" width="14.1" height="258.7"/>
	<g class="st2">
		<path class="st5" d="M210.6,123.2c0-23.3-11.1-35.1-27.7-35.1c-17,0-28.7,12.2-28.7,36.7v62.7h-16.6v-64.4
			c0-23.3-11.1-35.1-27.7-35.1c-17,0-28.7,12.2-28.7,36.7v62.7H64.3V73.8h16.8v16.4c6.7-12,18.7-18.5,32-18.5
			c16.6,0,30.5,8.3,37.2,25.3c5.9-16.4,20.3-25.3,35.9-25.3c23.1,0,41.1,16.2,41.1,48.8v67.1h-16.6V123.2z"/>
		<polygon class="st5" points="268.6,227.7 286,227.7 342.1,73.8 324.7,73.8 293.3,166 261.5,73.8 242.8,73.8 283.6,186.3 		"/>
	</g>
	<g class="st2">
		<g>
			<defs>
				<rect id="SVGID_00000012446271638067004980000007539225317274099591_" x="-112.2" y="-221.3" width="765.1" height="765.1"/>
			</defs>
			<clipPath id="SVGID_00000017486891425094456760000002023174732120130465_">
				<use xlink:href="#SVGID_00000012446271638067004980000007539225317274099591_"  style="overflow:visible;"/>
			</clipPath>
		</g>
	</g>
	<g class="st2">
		<g>
			<defs>
				<rect id="SVGID_00000034066195463419896860000010329619214132469899_" x="-147.6" y="32.7" width="156.1" height="156.1"/>
			</defs>
			<clipPath id="SVGID_00000049210969076017716120000004232634384919461259_">
				<use xlink:href="#SVGID_00000034066195463419896860000010329619214132469899_"  style="overflow:visible;"/>
			</clipPath>
			<g style="clip-path:url(#SVGID_00000049210969076017716120000004232634384919461259_);">
				<defs>
					<rect id="SVGID_00000019680520112036687690000003575933751948874149_" x="-147.6" y="32.7" width="156.1" height="156.1"/>
				</defs>
				<clipPath id="SVGID_00000083808446664780893280000013161559946056699026_">
					<use xlink:href="#SVGID_00000019680520112036687690000003575933751948874149_"  style="overflow:visible;"/>
				</clipPath>
				<path style="clip-path:url(#SVGID_00000083808446664780893280000013161559946056699026_);fill:#FFFFFF;" d="M-72,32.7h5
					c0.1,0,0.2,0.1,0.3,0.1c1.2,0.1,2.3,0.1,3.5,0.2c1.5,0.1,3,0.3,4.5,0.5c3.1,0.4,6.2,1,9.2,1.8c5.7,1.5,11.2,3.7,16.5,6.4
					c2.9,1.5,5.7,3.2,8.3,5.1c4.4,3.1,8.4,6.6,12.1,10.4c1.8,1.9,3.5,3.9,5,5.9C-4,68-0.9,73.1,1.5,78.5c2.1,4.7,3.8,9.5,4.9,14.5
					c0.6,2.5,1.1,5.1,1.4,7.7c0.3,2,0.5,4,0.5,6c0,0.1,0.1,0.2,0.1,0.3v7.4c0,0.2-0.1,0.3-0.1,0.5c0,0.6,0,1.1-0.1,1.7
					c-0.1,1.4-0.3,2.8-0.5,4.2c-0.3,2-0.6,4.1-1,6.1c-0.7,3.5-1.7,6.8-2.9,10.1c-1.5,4.1-3.3,8.1-5.4,11.9
					c-3.2,5.7-7,10.9-11.5,15.7c-1.9,2-4,4-6.1,5.8c-4.4,3.7-9.2,7-14.4,9.6c-2.7,1.4-5.5,2.6-8.3,3.7c-4.3,1.6-8.6,2.9-13.1,3.7
					c-1.9,0.4-3.9,0.6-5.8,0.9c-1.6,0.2-3.2,0.3-4.8,0.4c-0.1,0-0.2,0.1-0.3,0.1h-7.4c-0.1,0-0.2-0.1-0.3-0.1
					c-1.6-0.1-3.3-0.2-4.9-0.4c-1.9-0.2-3.8-0.5-5.6-0.8c-4-0.7-7.9-1.8-11.7-3.2c-3.7-1.3-7.3-2.9-10.7-4.8
					c-2.5-1.3-4.9-2.8-7.2-4.4c-3.5-2.4-6.7-5-9.7-7.9c-1.4-1.4-2.8-2.8-4.1-4.3c-2.5-2.7-4.7-5.6-6.8-8.7c-1.6-2.4-3.1-4.9-4.4-7.4
					c-0.4-0.8-0.8-1.5-1.2-2.3c0.2-0.1,0.3-0.1,0.4-0.1c2.2-0.5,4.4-1,6.7-1.6c2.7-0.6,5.3-1.3,8-2c3.3-0.9,6.6-1.7,9.9-2.6
					c3.7-1,7.4-2.1,11.1-3.1c3.8-1.1,7.6-2.3,11.4-3.4c3.4-1,6.7-2.1,10.1-3.2c3.3-1.1,6.6-2.2,9.9-3.3c4.2-1.5,8.4-3,12.6-4.5
					c0.3-0.1,0.7-0.3,1-0.3c2.9-0.5,5.8-1,8.7-1.4c0.2,0,0.4,0,0.6-0.1c-2,4.6-4,9.1-6.1,13.5c-2,4.5-4,9-6,13.5
					c-2.1,4.7-5.9,13.2-5.9,13.6c0.2-0.2,0.3-0.3,0.4-0.5c0.6-0.8,1.2-1.7,1.7-2.5c1.9-2.7,3.8-5.5,5.7-8.2c1.5-2.2,3.1-4.5,4.6-6.7
					c2.1-3,4.1-6,6.2-8.9c1.5-2.2,3.1-4.4,4.6-6.6c2.2-3.2,4.5-6.5,6.7-9.7c0.4-0.6,0.9-1,1.5-1.2c2.7-1.2,5.3-2.3,8-3.5
					c4.2-1.8,8.3-3.7,12.5-5.5c5.6-2.5,11.3-4.9,16.9-7.4c1.7-0.8,3.4-1.5,5.1-2.3c0.1,0,0.2-0.1,0.2-0.2C6.6,96,6.4,96,6.3,96
					c-1.3,0.2-2.6,0.4-3.9,0.6c-0.5,0.1-1,0.1-1.5,0.1c-1.7,0.3-3.4,0.5-5.2,0.8c-2,0.3-4,0.6-6,0.9c-1.7,0.3-3.5,0.6-5.2,0.8
					c-2,0.3-4,0.6-5.9,0.9c-1.7,0.3-3.5,0.6-5.2,0.8c-1.8,0.3-3.6,0.6-5.3,0.8c-0.7,0.1-1.3,0.2-1.9,0.3c0,0-0.1-0.1-0.1-0.1
					c0,0,0-0.1,0-0.1c0-0.1,0-0.1-0.1-0.2c-3.7-12.9-7.3-25.8-11-38.7c-0.2-0.7-0.4-1.4-0.6-2.2c0-0.1,0-0.1,0-0.2c0,0,0-0.1,0-0.1
					c0,0,0,0,0,0c0,0,0,0-0.1,0c0,0.1,0,0.1,0,0.2c0,1.4-0.1,2.8-0.1,4.2c0,1.4-0.1,2.8-0.1,4.2c0,1.4-0.1,2.8-0.1,4.3
					c0,1.4-0.1,2.8-0.1,4.2c0,1.4-0.1,2.8-0.1,4.3c0,1.4-0.1,2.8-0.1,4.3c0,1.4-0.1,2.8-0.1,4.2c0,1.4-0.1,2.9-0.1,4.3
					c0,1.4-0.1,2.7-0.1,4.1c0,1.4-0.1,2.9-0.1,4.3c0,0.9,0,1.7,0,2.6c0,0.3-0.1,0.4-0.3,0.5c-0.1,0-0.2,0.1-0.3,0.1
					c-2.5,1.1-4.9,2.1-7.4,3.2c-0.9,0.4-1.8,0.9-2.8,1.1c-4,1.1-8,2.2-12.1,3.2c-5.5,1.4-11,2.7-16.6,4c-3.8,0.9-7.7,1.7-11.5,2.5
					c-3.1,0.6-6.2,1.2-9.3,1.8c-2.8,0.5-5.7,1-8.5,1.5c-2.2,0.4-4.4,0.7-6.6,1.1c-2.5,0.4-5,0.8-7.5,1.2c-1.7,0.3-3.4,0.5-5.1,0.7
					c-1.7,0.2-3.4,0.4-5,0.7c-1.2,0.2-2.5,0.3-3.7,0.5c-0.7,0.1-1.4,0.1-2.1,0.2c-0.2-0.8-0.3-1.6-0.5-2.3c-0.3-1.7-0.6-3.4-0.8-5.2
					c-0.2-1.6-0.3-3.2-0.5-4.8c-0.1-0.7-0.1-1.4-0.1-2c0-0.1-0.1-0.2-0.1-0.2c0-1.7,0-3.3,0-5c0-0.1,0.1-0.2,0.1-0.3
					c0-0.4,0.1-0.8,0.1-1.2c0.1-1,0.1-2,0.2-3c0.2-1.6,0.3-3.1,0.5-4.7c0.4-2.8,1-5.6,1.7-8.4c1.3-4.8,3-9.4,5.1-13.9
					c1.7-3.6,3.7-7,5.9-10.2c2.4-3.5,5-6.8,7.9-9.8c1.5-1.5,3-3,4.5-4.4c2.7-2.4,5.5-4.6,8.5-6.6c3.8-2.5,7.7-4.7,11.8-6.5
					c6.3-2.8,12.8-4.7,19.5-5.7c3.1-0.5,6.1-0.8,9.2-0.9C-72.3,32.8-72.1,32.8-72,32.7"/>
			</g>
		</g>
	</g>
</g>
<g id="Old" class="st0">
	<g class="st2">
		<defs>
			<rect id="SVGID_00000154401789311069977330000006226080353720138410_" x="289.7" y="-10.8" width="1672" height="242"/>
		</defs>
		<clipPath id="SVGID_00000016771609362627069340000003855482672848290236_">
			<use xlink:href="#SVGID_00000154401789311069977330000006226080353720138410_"  style="overflow:visible;"/>
		</clipPath>
		<polygon style="clip-path:url(#SVGID_00000016771609362627069340000003855482672848290236_);fill:#102A48;" points="626.1,35.5 
			730,35.5 725.2,51.9 646.1,51.9 632.8,99.1 707.4,99.1 702.7,115.5 628.1,115.5 608.1,185.7 583.3,185.7 		"/>
		<polygon style="clip-path:url(#SVGID_00000016771609362627069340000003855482672848290236_);fill:#102A48;" points="743.3,35.5 
			766.9,35.5 724.1,185.7 700.5,185.7 		"/>
		<path style="clip-path:url(#SVGID_00000016771609362627069340000003855482672848290236_);fill:#102A48;" d="M784.8,73h23.6
			l-32.1,112.8h-23.6L784.8,73z M795.5,35.5h23.6l-5.9,20.2h-23.6L795.5,35.5z"/>
		<path style="clip-path:url(#SVGID_00000016771609362627069340000003855482672848290236_);fill:#102A48;" d="M904,178.6
			c-9.6,33.7-33.8,45.9-64.2,45.9c-9.3,0-45.6,0-41.7-28.2h23.6c-1.7,10.3,7.9,14.3,20.3,14.3c30.4,0,34.3-17.5,36.3-25.2l4.2-14.7
			H882c-7.6,9.5-23.4,15.1-38.3,15.1c-43.9,0-34.9-41.5-30.7-56.4c8.7-30.5,27.9-59.3,66.2-59.3c16.3,0,27,8.4,27.6,17.3h0.6
			l4.2-14.3h22.5L904,178.6z M837.8,129.4c-5.4,18.3-8.2,41.2,15.5,41.2c25.6,0,36-18.1,42.5-41.2c6.2-21.9,7.6-44.2-17.7-44.2
			C856.1,85.2,845.4,102.4,837.8,129.4"/>
		<path style="clip-path:url(#SVGID_00000016771609362627069340000003855482672848290236_);fill:#102A48;" d="M971.8,35.5h23.6
			l-14.4,50.3h0.6c8.7-9.3,27.3-15.8,40.8-15.8c38.8,0,32.4,22.5,28.7,35.8l-22.8,80h-23.6l22.2-77.9c2.3-8.6,5.6-22.7-15.8-22.7
			c-12.7,0-31.8,6.3-36.3,22.7l-22.2,77.9H929L971.8,35.5z"/>
		<path style="clip-path:url(#SVGID_00000016771609362627069340000003855482672848290236_);fill:#102A48;" d="M1100.6,40.1h23.6
			l-9.3,32.8h26.2l-3.9,13.9H1111l-20.6,72.4c-2.5,9-0.6,12.6,11.8,12.6c5.1,0,7.9-0.4,10.7-0.6l-4.2,14.5
			c-3.1,0.4-9.6,1.3-19.4,1.3c-24.5,0-28.4-7.6-24.2-22.3l22.2-77.9h-22l3.9-13.9h22L1100.6,40.1z"/>
		<polygon style="clip-path:url(#SVGID_00000016771609362627069340000003855482672848290236_);fill:#102A48;" points="1166.5,35.5 
			1191.2,35.5 1153.2,169.3 1234.9,169.3 1230.1,185.7 1123.7,185.7 		"/>
		<path style="clip-path:url(#SVGID_00000016771609362627069340000003855482672848290236_);fill:#102A48;" d="M1314.3,70
			c43.6,0,46.4,27.6,37.4,59.3c-9,31.8-27.9,59.3-71.2,59.3c-43.6,0-46.4-27.6-37.4-59.3C1252.1,97.6,1271,70,1314.3,70 M1327,129.4
			c7-24.4,8.2-45.5-17.2-45.5c-23.9,0-34.9,21-41.9,45.5c-7,24.4-8.2,45.4,16,45.4C1309,174.8,1319.9,153.8,1327,129.4"/>
		<path style="clip-path:url(#SVGID_00000016771609362627069340000003855482672848290236_);fill:#102A48;" d="M1457.3,178.6
			c-9.6,33.7-33.8,45.9-64.2,45.9c-9.3,0-45.6,0-41.7-28.2h23.6c-1.7,10.3,7.9,14.3,20.3,14.3c30.4,0,34.3-17.5,36.3-25.2l4.2-14.7
			h-0.6c-7.6,9.5-23.4,15.1-38.3,15.1c-43.9,0-34.9-41.5-30.7-56.4c8.7-30.5,27.9-59.3,66.2-59.3c16.3,0,27,8.4,27.6,17.3h0.6
			l4.2-14.3h22.5L1457.3,178.6z M1391.1,129.4c-5.3,18.3-8.2,41.2,15.5,41.2c25.6,0,36-18.1,42.5-41.2c6.2-21.9,7.6-44.2-17.7-44.2
			C1409.4,85.2,1398.7,102.4,1391.1,129.4"/>
		<path style="clip-path:url(#SVGID_00000016771609362627069340000003855482672848290236_);fill:#102A48;" d="M1582.8,178.6
			c-9.6,33.7-33.8,45.9-64.2,45.9c-9.3,0-45.6,0-41.7-28.2h23.6c-1.7,10.3,7.9,14.3,20.3,14.3c30.4,0,34.3-17.5,36.3-25.2l4.2-14.7
			h-0.6c-7.6,9.5-23.4,15.1-38.3,15.1c-43.9,0-34.9-41.5-30.7-56.4c8.7-30.5,27.9-59.3,66.2-59.3c16.3,0,27,8.4,27.6,17.3h0.6
			l4.2-14.3h22.5L1582.8,178.6z M1516.7,129.4c-5.3,18.3-8.2,41.2,15.5,41.2c25.6,0,36-18.1,42.5-41.2c6.2-21.9,7.6-44.2-17.7-44.2
			C1535,85.2,1524.3,102.4,1516.7,129.4"/>
		<path style="clip-path:url(#SVGID_00000016771609362627069340000003855482672848290236_);fill:#102A48;" d="M1642.4,131.5
			c-5.1,17.3-12.4,43.3,16.6,43.3c22.5,0,30.7-17.7,32.9-26.1h23.6c-3.4,12-20.8,40-61.9,40c-36.9,0-47-19.1-36-57.9
			c8.2-28.2,24.8-60.8,71.2-60.8c46.2,0,41.9,30.1,34.9,54.3l-2,7.2H1642.4z M1700.9,117.6l1.7-6.1c3.7-12.6,2.5-27.6-18.3-27.6
			c-24.8,0-34.1,22.7-36,29.5l-1.1,4.2H1700.9z"/>
		<path style="clip-path:url(#SVGID_00000016771609362627069340000003855482672848290236_);fill:#102A48;" d="M1760.2,73h23.6
			l-4.8,16.8h0.6c9.9-10.7,21.4-19.8,38.3-19.8c4.8,0,7.9,0.4,10.1,1.3l-5.1,17.3c-2.3-0.2-4.8-0.8-12.4-0.8
			c-11.8,0-33.2,8-38.6,26.7l-20.3,71.3h-23.6L1760.2,73z"/>
		<g style="clip-path:url(#SVGID_00000016771609362627069340000003855482672848290236_);">
			<text transform="matrix(1 0 0 1 1832.0817 69.4059)" class="st14 st6 st7">®</text>
		</g>
		
			<g id="MyFlightLogger_plane.psd_00000139991737371289678820000010259944851330114458_" style="clip-path:url(#SVGID_00000016771609362627069340000003855482672848290236_);">
			
				<image style="overflow:visible;" width="3188" height="3188" id="Layer_1_00000003809339851661263190000009102095784040231844_" xlink:href="D74C95450CCCEF17.png"  transform="matrix(6.077436e-02 0 0 6.077436e-02 4.8323 31.4621)">
			</image>
		</g>
	</g>
	<rect x="539" y="1.1" class="st13" width="14.1" height="258.7"/>
	<g class="st2">
		<path class="st14" d="M378.3,123c0-23.3-11.1-35.1-27.7-35.1c-17,0-28.7,12.2-28.7,36.7v62.7h-16.6V123
			c0-23.3-11.1-35.1-27.7-35.1c-17,0-28.7,12.2-28.7,36.7v62.7H232V73.6h16.8V90c6.7-12,18.7-18.5,32-18.5
			c16.6,0,30.5,8.3,37.2,25.3c5.9-16.4,20.3-25.3,35.9-25.3c23.1,0,41.1,16.2,41.1,48.8v67.1h-16.6V123z"/>
		<polygon class="st14" points="436.3,227.5 453.7,227.5 509.8,73.6 492.4,73.6 461,165.8 429.2,73.6 410.5,73.6 451.4,186.1 		"/>
	</g>
	<g class="st2">
		<g>
			<defs>
				<rect id="SVGID_00000129197152555475667920000001532760085445123200_" x="19.1" y="32.7" width="156.9" height="156.9"/>
			</defs>
			<clipPath id="SVGID_00000128456772210670933390000011760928723310520228_">
				<use xlink:href="#SVGID_00000129197152555475667920000001532760085445123200_"  style="overflow:visible;"/>
			</clipPath>
			<g style="clip-path:url(#SVGID_00000128456772210670933390000011760928723310520228_);">
				<defs>
					<rect id="SVGID_00000022521475543716348940000015403946346985148351_" x="19.1" y="32.7" width="156.9" height="156.9"/>
				</defs>
				<clipPath id="SVGID_00000168108263567045617550000017652061936062772615_">
					<use xlink:href="#SVGID_00000022521475543716348940000015403946346985148351_"  style="overflow:visible;"/>
				</clipPath>
				<path style="clip-path:url(#SVGID_00000168108263567045617550000017652061936062772615_);fill:#102A48;" d="M95.1,32.7h5
					c0.1,0,0.2,0.1,0.3,0.1c1.2,0.1,2.4,0.1,3.5,0.2c1.5,0.1,3,0.3,4.5,0.5c3.1,0.4,6.2,1,9.2,1.8c5.8,1.5,11.3,3.7,16.6,6.5
					c2.9,1.5,5.7,3.2,8.4,5.1c4.4,3.1,8.4,6.6,12.1,10.5c1.8,1.9,3.5,3.9,5.1,5.9c3.7,4.8,6.8,9.9,9.2,15.4c2.1,4.7,3.8,9.6,5,14.6
					c0.6,2.6,1.1,5.1,1.4,7.7c0.3,2,0.5,4,0.5,6c0,0.1,0.1,0.2,0.1,0.3v7.5c0,0.2-0.1,0.3-0.1,0.5c0,0.6,0,1.2-0.1,1.7
					c-0.1,1.4-0.3,2.8-0.5,4.2c-0.3,2.1-0.6,4.1-1,6.1c-0.7,3.5-1.7,6.9-2.9,10.2c-1.5,4.1-3.3,8.1-5.4,11.9
					c-3.2,5.7-7.1,11-11.6,15.7c-1.9,2-4,4-6.1,5.8c-4.5,3.8-9.3,7-14.5,9.7c-2.7,1.4-5.5,2.7-8.3,3.7c-4.3,1.6-8.7,2.9-13.2,3.7
					c-1.9,0.4-3.9,0.6-5.9,0.9c-1.6,0.2-3.2,0.3-4.8,0.4c-0.1,0-0.2,0.1-0.3,0.1h-7.5c-0.1,0-0.2-0.1-0.3-0.1
					c-1.6-0.1-3.3-0.2-4.9-0.4c-1.9-0.2-3.8-0.5-5.7-0.8c-4-0.7-7.9-1.8-11.8-3.2c-3.7-1.3-7.3-2.9-10.8-4.8
					c-2.5-1.3-4.9-2.8-7.2-4.4c-3.5-2.4-6.8-5-9.8-7.9c-1.4-1.4-2.8-2.8-4.2-4.3c-2.5-2.7-4.8-5.7-6.8-8.7c-1.6-2.4-3.1-4.9-4.4-7.5
					c-0.4-0.8-0.8-1.5-1.2-2.3c0.2-0.1,0.3-0.1,0.4-0.1c2.2-0.5,4.5-1,6.7-1.6c2.7-0.7,5.4-1.3,8.1-2c3.3-0.9,6.7-1.7,10-2.6
					c3.7-1,7.4-2.1,11.2-3.2c3.8-1.1,7.7-2.3,11.5-3.5c3.4-1.1,6.8-2.1,10.2-3.3c3.3-1.1,6.7-2.2,10-3.4c4.2-1.5,8.5-3,12.7-4.6
					c0.3-0.1,0.7-0.3,1-0.3c2.9-0.5,5.8-1,8.8-1.4c0.2,0,0.4,0,0.6-0.1c-2.1,4.6-4.1,9.1-6.1,13.6c-2,4.5-4,9-6.1,13.5
					c-2.2,4.7-5.9,13.2-6,13.7c0.2-0.2,0.3-0.3,0.4-0.5c0.6-0.8,1.2-1.7,1.8-2.6c1.9-2.8,3.8-5.5,5.7-8.3c1.5-2.2,3.1-4.5,4.6-6.7
					c2.1-3,4.1-6,6.2-9c1.5-2.2,3.1-4.5,4.6-6.7c2.3-3.3,4.5-6.5,6.7-9.8c0.4-0.6,0.9-1,1.5-1.3c2.7-1.2,5.4-2.3,8.1-3.5
					c4.2-1.8,8.4-3.7,12.6-5.5c5.7-2.5,11.3-4.9,17-7.4c1.7-0.8,3.5-1.5,5.2-2.3c0.1,0,0.2-0.1,0.3-0.2c-0.1-0.1-0.3-0.1-0.4,0
					c-1.3,0.2-2.6,0.4-3.9,0.6c-0.5,0.1-1,0.1-1.5,0.1c-1.7,0.3-3.5,0.5-5.2,0.8c-2,0.3-4,0.6-6,0.9c-1.7,0.3-3.5,0.6-5.2,0.8
					c-2,0.3-4,0.6-6,0.9c-1.7,0.3-3.5,0.6-5.2,0.8c-1.8,0.3-3.6,0.6-5.4,0.9c-0.7,0.1-1.3,0.2-1.9,0.3c0,0-0.1-0.1-0.1-0.1
					c0,0,0-0.1,0-0.1c0-0.1,0-0.1-0.1-0.2c-3.7-13-7.4-26-11-38.9c-0.2-0.7-0.4-1.4-0.6-2.2c0-0.1,0-0.1,0-0.2c0,0,0-0.1,0-0.1
					c0,0,0,0,0,0c0,0,0,0-0.1,0c0,0.1,0,0.1,0,0.2c0,1.4-0.1,2.8-0.1,4.2c0,1.4-0.1,2.8-0.1,4.2c0,1.4-0.1,2.8-0.1,4.3
					c0,1.4-0.1,2.8-0.1,4.2c0,1.4-0.1,2.8-0.1,4.3c0,1.4-0.1,2.8-0.1,4.3c0,1.4-0.1,2.8-0.1,4.2c0,1.4-0.1,2.9-0.1,4.3
					c0,1.4-0.1,2.8-0.1,4.1c0,1.5-0.1,2.9-0.1,4.4c0,0.9,0,1.7,0,2.6c0,0.3-0.1,0.4-0.3,0.5c-0.1,0-0.2,0.1-0.3,0.1
					c-2.5,1.1-4.9,2.1-7.4,3.2c-0.9,0.4-1.8,0.9-2.8,1.1c-4,1.1-8.1,2.2-12.1,3.2c-5.5,1.4-11.1,2.7-16.7,4
					c-3.8,0.9-7.7,1.7-11.6,2.5c-3.1,0.6-6.2,1.2-9.3,1.8c-2.8,0.5-5.7,1.1-8.5,1.6c-2.2,0.4-4.5,0.7-6.7,1.1
					c-2.5,0.4-5,0.8-7.6,1.2c-1.7,0.3-3.4,0.5-5.2,0.7c-1.7,0.2-3.4,0.5-5.1,0.7c-1.2,0.2-2.5,0.3-3.7,0.5c-0.7,0.1-1.4,0.1-2.1,0.2
					c-0.2-0.8-0.4-1.6-0.5-2.3c-0.3-1.7-0.6-3.5-0.8-5.2c-0.2-1.6-0.3-3.2-0.5-4.8c-0.1-0.7-0.1-1.4-0.1-2.1c0-0.1-0.1-0.2-0.1-0.3
					c0-1.7,0-3.3,0-5c0-0.1,0.1-0.2,0.1-0.3c0-0.4,0.1-0.8,0.1-1.2c0.1-1,0.1-2,0.2-3c0.2-1.6,0.3-3.1,0.5-4.7
					c0.4-2.9,1-5.7,1.7-8.5c1.3-4.8,3-9.5,5.1-13.9c1.7-3.6,3.7-7,6-10.3c2.4-3.5,5-6.8,8-9.8c1.5-1.5,3-3,4.6-4.4
					C48.1,50.2,51,48,54,46c3.8-2.5,7.8-4.7,11.9-6.6c6.3-2.8,12.8-4.7,19.6-5.8c3.1-0.5,6.2-0.8,9.3-0.9
					C94.9,32.8,95,32.7,95.1,32.7"/>
			</g>
		</g>
	</g>
</g>
<g id="New_colored" class="st0">
	<g class="st2">
		<defs>
			<rect id="SVGID_00000183224122480157511170000005475682182086584970_" x="114.7" y="-11" width="1672" height="242"/>
		</defs>
		<clipPath id="SVGID_00000153706615574543822040000006986236048030829235_">
			<use xlink:href="#SVGID_00000183224122480157511170000005475682182086584970_"  style="overflow:visible;"/>
		</clipPath>
		<polygon style="clip-path:url(#SVGID_00000153706615574543822040000006986236048030829235_);fill:#102A48;" points="451.1,35.3 
			554.9,35.3 550.2,51.8 471,51.8 457.8,98.9 532.4,98.9 527.6,115.3 453,115.3 433,185.6 408.3,185.6 		"/>
		<polygon style="clip-path:url(#SVGID_00000153706615574543822040000006986236048030829235_);fill:#102A48;" points="568.3,35.3 
			591.9,35.3 549.1,185.6 525.5,185.6 		"/>
		<path style="clip-path:url(#SVGID_00000153706615574543822040000006986236048030829235_);fill:#102A48;" d="M609.7,72.8h23.6
			l-32.1,112.8h-23.6L609.7,72.8z M620.4,35.3h23.6l-5.9,20.2h-23.6L620.4,35.3z"/>
		<path style="clip-path:url(#SVGID_00000153706615574543822040000006986236048030829235_);fill:#102A48;" d="M728.9,178.4
			c-9.6,33.7-33.8,45.9-64.2,45.9c-9.3,0-45.6,0-41.7-28.2h23.6c-1.7,10.3,7.9,14.3,20.3,14.3c30.4,0,34.3-17.5,36.3-25.2l4.2-14.7
			H707c-7.6,9.5-23.4,15.1-38.3,15.1c-43.9,0-34.9-41.5-30.7-56.4c8.7-30.5,27.9-59.3,66.2-59.3c16.3,0,27,8.4,27.6,17.3h0.6
			l4.2-14.3h22.5L728.9,178.4z M662.8,129.2c-5.4,18.3-8.2,41.2,15.5,41.2c25.6,0,36-18.1,42.5-41.2C727,107.3,728.4,85,703,85
			C681.1,85,670.4,102.3,662.8,129.2"/>
		<path style="clip-path:url(#SVGID_00000153706615574543822040000006986236048030829235_);fill:#102A48;" d="M796.8,35.3h23.6
			l-14.4,50.3h0.6c8.7-9.3,27.3-15.8,40.8-15.8c38.8,0,32.4,22.5,28.7,35.8l-22.8,80h-23.6l22.2-77.9c2.3-8.6,5.6-22.7-15.8-22.7
			c-12.7,0-31.8,6.3-36.3,22.7l-22.2,77.9H754L796.8,35.3z"/>
		<path style="clip-path:url(#SVGID_00000153706615574543822040000006986236048030829235_);fill:#102A48;" d="M925.6,40h23.6
			l-9.3,32.8h26.2l-3.9,13.9H936l-20.6,72.4c-2.5,9-0.6,12.6,11.8,12.6c5.1,0,7.9-0.4,10.7-0.6l-4.2,14.5c-3.1,0.4-9.6,1.3-19.4,1.3
			c-24.5,0-28.4-7.6-24.2-22.3l22.2-77.9h-22l3.9-13.9h22L925.6,40z"/>
		<polygon style="clip-path:url(#SVGID_00000153706615574543822040000006986236048030829235_);fill:#102A48;" points="991.4,35.3 
			1016.2,35.3 978.2,169.2 1059.8,169.2 1055.1,185.6 948.7,185.6 		"/>
		<path style="clip-path:url(#SVGID_00000153706615574543822040000006986236048030829235_);fill:#102A48;" d="M1139.3,69.9
			c43.6,0,46.4,27.6,37.4,59.3c-9,31.8-27.9,59.3-71.2,59.3c-43.6,0-46.4-27.6-37.4-59.3C1077.1,97.4,1095.9,69.9,1139.3,69.9
			 M1152,129.2c7-24.4,8.2-45.5-17.2-45.5c-23.9,0-34.9,21-41.9,45.5c-7,24.4-8.2,45.4,16,45.4
			C1133.9,174.6,1144.9,153.6,1152,129.2"/>
		<path style="clip-path:url(#SVGID_00000153706615574543822040000006986236048030829235_);fill:#102A48;" d="M1282.2,178.4
			c-9.6,33.7-33.8,45.9-64.2,45.9c-9.3,0-45.6,0-41.7-28.2h23.6c-1.7,10.3,7.9,14.3,20.3,14.3c30.4,0,34.3-17.5,36.3-25.2l4.2-14.7
			h-0.6c-7.6,9.5-23.4,15.1-38.3,15.1c-43.9,0-34.9-41.5-30.7-56.4c8.7-30.5,27.9-59.3,66.2-59.3c16.3,0,27,8.4,27.6,17.3h0.6
			l4.2-14.3h22.5L1282.2,178.4z M1216.1,129.2c-5.3,18.3-8.2,41.2,15.5,41.2c25.6,0,36-18.1,42.5-41.2c6.2-21.9,7.6-44.2-17.7-44.2
			C1234.4,85,1223.7,102.3,1216.1,129.2"/>
		<path style="clip-path:url(#SVGID_00000153706615574543822040000006986236048030829235_);fill:#102A48;" d="M1407.8,178.4
			c-9.6,33.7-33.8,45.9-64.2,45.9c-9.3,0-45.6,0-41.7-28.2h23.6c-1.7,10.3,7.9,14.3,20.3,14.3c30.4,0,34.3-17.5,36.3-25.2l4.2-14.7
			h-0.6c-7.6,9.5-23.4,15.1-38.3,15.1c-43.9,0-34.9-41.5-30.7-56.4c8.7-30.5,27.9-59.3,66.2-59.3c16.3,0,27,8.4,27.6,17.3h0.6
			l4.2-14.3h22.5L1407.8,178.4z M1341.6,129.2c-5.3,18.3-8.2,41.2,15.5,41.2c25.6,0,36-18.1,42.5-41.2c6.2-21.9,7.6-44.2-17.7-44.2
			C1359.9,85,1349.2,102.3,1341.6,129.2"/>
		<path style="clip-path:url(#SVGID_00000153706615574543822040000006986236048030829235_);fill:#102A48;" d="M1467.3,131.3
			c-5.1,17.3-12.4,43.3,16.6,43.3c22.5,0,30.7-17.7,32.9-26.1h23.6c-3.4,12-20.8,40-61.9,40c-36.9,0-47-19.1-36-57.9
			c8.2-28.2,24.8-60.8,71.2-60.8c46.2,0,41.9,30.1,34.9,54.3l-2,7.2H1467.3z M1525.9,117.4l1.7-6.1c3.7-12.6,2.5-27.6-18.3-27.6
			c-24.8,0-34.1,22.7-36,29.5l-1.1,4.2H1525.9z"/>
		<path style="clip-path:url(#SVGID_00000153706615574543822040000006986236048030829235_);fill:#102A48;" d="M1585.2,72.8h23.6
			l-4.8,16.8h0.6c9.9-10.7,21.4-19.8,38.3-19.8c4.8,0,7.9,0.4,10.1,1.3l-5.1,17.3c-2.3-0.2-4.8-0.8-12.4-0.8
			c-11.8,0-33.2,8-38.6,26.7l-20.3,71.3h-23.6L1585.2,72.8z"/>
		<g style="clip-path:url(#SVGID_00000153706615574543822040000006986236048030829235_);">
			<text transform="matrix(1 0 0 1 1657.0586 69.2418)" class="st14 st6 st7">®</text>
		</g>
		
			<g id="MyFlightLogger_plane.psd_00000055692957344090332380000002195976440691429295_" style="clip-path:url(#SVGID_00000153706615574543822040000006986236048030829235_);">
			
				<image style="overflow:visible;" width="3188" height="3188" id="Layer_1_00000117643879343736110660000013085142127717099398_" xlink:href="D74C95450CCCEF18.png"  transform="matrix(6.077436e-02 0 0 6.077436e-02 -170.1908 31.298)">
			</image>
		</g>
	</g>
	<rect x="364" y="0.9" class="st13" width="14.1" height="258.7"/>
	<g class="st2">
		<g>
			<defs>
				<rect id="SVGID_00000149372633373112805830000018336545331003813299_" x="-203.9" y="32.5" width="156.9" height="156.9"/>
			</defs>
			<clipPath id="SVGID_00000032624155504940346550000014386180934790670223_">
				<use xlink:href="#SVGID_00000149372633373112805830000018336545331003813299_"  style="overflow:visible;"/>
			</clipPath>
			<g style="clip-path:url(#SVGID_00000032624155504940346550000014386180934790670223_);">
				<defs>
					<rect id="SVGID_00000077316272730413687990000000583644989543849660_" x="-203.9" y="32.5" width="156.9" height="156.9"/>
				</defs>
				<clipPath id="SVGID_00000153681598437039162390000003342093287890011265_">
					<use xlink:href="#SVGID_00000077316272730413687990000000583644989543849660_"  style="overflow:visible;"/>
				</clipPath>
				<path style="clip-path:url(#SVGID_00000153681598437039162390000003342093287890011265_);fill:#102A48;" d="M-127.9,32.5h5
					c0.1,0,0.2,0.1,0.3,0.1c1.2,0.1,2.4,0.1,3.5,0.2c1.5,0.1,3,0.3,4.5,0.5c3.1,0.4,6.2,1,9.2,1.8c5.8,1.5,11.3,3.7,16.6,6.5
					c2.9,1.5,5.7,3.2,8.4,5.1c4.4,3.1,8.4,6.6,12.1,10.5c1.8,1.9,3.5,3.9,5.1,5.9c3.7,4.8,6.8,9.9,9.2,15.4c2.1,4.7,3.8,9.6,5,14.6
					c0.6,2.6,1.1,5.1,1.4,7.7c0.3,2,0.5,4,0.5,6c0,0.1,0.1,0.2,0.1,0.3v7.5c0,0.2-0.1,0.3-0.1,0.5c0,0.6,0,1.2-0.1,1.7
					c-0.1,1.4-0.3,2.8-0.5,4.2c-0.3,2.1-0.6,4.1-1,6.1c-0.7,3.5-1.7,6.9-2.9,10.2c-1.5,4.1-3.3,8.1-5.4,11.9
					c-3.2,5.7-7.1,11-11.6,15.7c-1.9,2-4,4-6.1,5.8c-4.5,3.8-9.3,7-14.5,9.7c-2.7,1.4-5.5,2.7-8.3,3.7c-4.3,1.6-8.7,2.9-13.2,3.7
					c-1.9,0.4-3.9,0.6-5.9,0.9c-1.6,0.2-3.2,0.3-4.8,0.4c-0.1,0-0.2,0.1-0.3,0.1h-7.5c-0.1,0-0.2-0.1-0.3-0.1
					c-1.6-0.1-3.3-0.2-4.9-0.4c-1.9-0.2-3.8-0.5-5.7-0.8c-4-0.7-7.9-1.8-11.8-3.2c-3.7-1.3-7.3-2.9-10.8-4.8
					c-2.5-1.3-4.9-2.8-7.2-4.4c-3.5-2.4-6.8-5-9.8-7.9c-1.4-1.4-2.8-2.8-4.2-4.3c-2.5-2.7-4.8-5.7-6.8-8.7c-1.6-2.4-3.1-4.9-4.4-7.5
					c-0.4-0.8-0.8-1.5-1.2-2.3c0.2-0.1,0.3-0.1,0.4-0.1c2.2-0.5,4.5-1,6.7-1.6c2.7-0.7,5.4-1.3,8.1-2c3.3-0.9,6.7-1.7,10-2.6
					c3.7-1,7.4-2.1,11.2-3.2c3.8-1.1,7.7-2.3,11.5-3.5c3.4-1.1,6.8-2.1,10.2-3.3c3.3-1.1,6.7-2.2,10-3.4c4.2-1.5,8.5-3,12.7-4.6
					c0.3-0.1,0.7-0.3,1-0.3c2.9-0.5,5.8-1,8.8-1.4c0.2,0,0.4,0,0.6-0.1c-2.1,4.6-4.1,9.1-6.1,13.6c-2,4.5-4,9-6.1,13.5
					c-2.2,4.7-5.9,13.2-6,13.7c0.2-0.2,0.3-0.3,0.4-0.5c0.6-0.8,1.2-1.7,1.8-2.6c1.9-2.8,3.8-5.5,5.7-8.3c1.5-2.2,3.1-4.5,4.6-6.7
					c2.1-3,4.1-6,6.2-9c1.5-2.2,3.1-4.5,4.6-6.7c2.3-3.3,4.5-6.5,6.7-9.8c0.4-0.6,0.9-1,1.5-1.3c2.7-1.2,5.4-2.3,8.1-3.5
					c4.2-1.8,8.4-3.7,12.6-5.5c5.7-2.5,11.3-4.9,17-7.4c1.7-0.8,3.5-1.5,5.2-2.3c0.1,0,0.2-0.1,0.3-0.2c-0.1-0.1-0.3-0.1-0.4,0
					c-1.3,0.2-2.6,0.4-3.9,0.6c-0.5,0.1-1,0.1-1.5,0.1c-1.7,0.3-3.5,0.5-5.2,0.8c-2,0.3-4,0.6-6,0.9c-1.7,0.3-3.5,0.6-5.2,0.8
					c-2,0.3-4,0.6-6,0.9c-1.7,0.3-3.5,0.6-5.2,0.8c-1.8,0.3-3.6,0.6-5.4,0.9c-0.7,0.1-1.3,0.2-1.9,0.3c0,0-0.1-0.1-0.1-0.1
					c0,0,0-0.1,0-0.1c0-0.1,0-0.1-0.1-0.2c-3.7-13-7.4-26-11-38.9c-0.2-0.7-0.4-1.4-0.6-2.2c0-0.1,0-0.1,0-0.2c0,0,0-0.1,0-0.1
					c0,0,0,0,0,0c0,0,0,0-0.1,0c0,0.1,0,0.1,0,0.2c0,1.4-0.1,2.8-0.1,4.2c0,1.4-0.1,2.8-0.1,4.2c0,1.4-0.1,2.8-0.1,4.3
					c0,1.4-0.1,2.8-0.1,4.2c0,1.4-0.1,2.8-0.1,4.3c0,1.4-0.1,2.8-0.1,4.3c0,1.4-0.1,2.8-0.1,4.2c0,1.4-0.1,2.9-0.1,4.3
					c0,1.4-0.1,2.8-0.1,4.1c0,1.5-0.1,2.9-0.1,4.4c0,0.9,0,1.7,0,2.6c0,0.3-0.1,0.4-0.3,0.5c-0.1,0-0.2,0.1-0.3,0.1
					c-2.5,1.1-4.9,2.1-7.4,3.2c-0.9,0.4-1.8,0.9-2.8,1.1c-4,1.1-8.1,2.2-12.1,3.2c-5.5,1.4-11.1,2.7-16.7,4
					c-3.8,0.9-7.7,1.7-11.6,2.5c-3.1,0.6-6.2,1.2-9.3,1.8c-2.8,0.5-5.7,1.1-8.5,1.6c-2.2,0.4-4.5,0.7-6.7,1.1
					c-2.5,0.4-5,0.8-7.6,1.2c-1.7,0.3-3.4,0.5-5.2,0.7c-1.7,0.2-3.4,0.5-5.1,0.7c-1.2,0.2-2.5,0.3-3.7,0.5c-0.7,0.1-1.4,0.1-2.1,0.2
					c-0.2-0.8-0.4-1.6-0.5-2.3c-0.3-1.7-0.6-3.5-0.8-5.2c-0.2-1.6-0.3-3.2-0.5-4.8c-0.1-0.7-0.1-1.4-0.1-2.1c0-0.1-0.1-0.2-0.1-0.3
					c0-1.7,0-3.3,0-5c0-0.1,0.1-0.2,0.1-0.3c0-0.4,0.1-0.8,0.1-1.2c0.1-1,0.1-2,0.2-3c0.2-1.6,0.3-3.1,0.5-4.7
					c0.4-2.9,1-5.7,1.7-8.5c1.3-4.8,3-9.5,5.1-13.9c1.7-3.6,3.7-7,6-10.3c2.4-3.5,5-6.8,8-9.8c1.5-1.5,3-3,4.6-4.4
					c2.7-2.4,5.5-4.6,8.5-6.6c3.8-2.5,7.8-4.7,11.9-6.6c6.3-2.8,12.8-4.7,19.6-5.8c3.1-0.5,6.2-0.8,9.3-0.9
					C-128.1,32.6-128,32.5-127.9,32.5"/>
			</g>
		</g>
	</g>
	<rect x="-4" y="32.5" class="st21" width="350.8" height="239.9"/>
	<text transform="matrix(1 0 0 1 -3.9712 187.1604)" class="st22 st23 st24">my</text>
</g>
<g id="New_white" class="st0">
	<g class="st2">
		<defs>
			<rect id="SVGID_00000127752859849886820830000008032202502978035391_" x="114.7" y="-11.8" width="1672" height="242"/>
		</defs>
		<clipPath id="SVGID_00000021080282209108332180000011693596325335643821_">
			<use xlink:href="#SVGID_00000127752859849886820830000008032202502978035391_"  style="overflow:visible;"/>
		</clipPath>
		<polygon style="clip-path:url(#SVGID_00000021080282209108332180000011693596325335643821_);fill:#FFFFFF;" points="451.1,34.6 
			554.9,34.6 550.2,51 471,51 457.8,98.1 532.4,98.1 527.6,114.5 453,114.5 433,184.8 408.3,184.8 		"/>
		<polygon style="clip-path:url(#SVGID_00000021080282209108332180000011693596325335643821_);fill:#FFFFFF;" points="568.3,34.6 
			591.9,34.6 549.1,184.8 525.5,184.8 		"/>
		<path style="clip-path:url(#SVGID_00000021080282209108332180000011693596325335643821_);fill:#FFFFFF;" d="M609.7,72h23.6
			l-32.1,112.8h-23.6L609.7,72z M620.4,34.6h23.6l-5.9,20.2h-23.6L620.4,34.6z"/>
		<path style="clip-path:url(#SVGID_00000021080282209108332180000011693596325335643821_);fill:#FFFFFF;" d="M728.9,177.7
			c-9.6,33.7-33.8,45.9-64.2,45.9c-9.3,0-45.6,0-41.7-28.2h23.6c-1.7,10.3,7.9,14.3,20.3,14.3c30.4,0,34.3-17.5,36.3-25.2l4.2-14.7
			H707c-7.6,9.5-23.4,15.1-38.3,15.1c-43.9,0-34.9-41.5-30.7-56.4c8.7-30.5,27.9-59.3,66.2-59.3c16.3,0,27,8.4,27.6,17.3h0.6
			l4.2-14.3h22.5L728.9,177.7z M662.8,128.4c-5.4,18.3-8.2,41.2,15.5,41.2c25.6,0,36-18.1,42.5-41.2c6.2-21.9,7.6-44.2-17.7-44.2
			C681.1,84.2,670.4,101.5,662.8,128.4"/>
		<path style="clip-path:url(#SVGID_00000021080282209108332180000011693596325335643821_);fill:#FFFFFF;" d="M796.8,34.6h23.6
			l-14.4,50.3h0.6c8.7-9.3,27.3-15.8,40.8-15.8c38.8,0,32.4,22.5,28.7,35.8l-22.8,80h-23.6L852,107c2.3-8.6,5.6-22.7-15.8-22.7
			c-12.7,0-31.8,6.3-36.3,22.7l-22.2,77.9H754L796.8,34.6z"/>
		<path style="clip-path:url(#SVGID_00000021080282209108332180000011693596325335643821_);fill:#FFFFFF;" d="M925.6,39.2h23.6
			L939.9,72h26.2l-3.9,13.9H936l-20.6,72.4c-2.5,9-0.6,12.6,11.8,12.6c5.1,0,7.9-0.4,10.7-0.6l-4.2,14.5c-3.1,0.4-9.6,1.3-19.4,1.3
			c-24.5,0-28.4-7.6-24.2-22.3l22.2-77.9h-22l3.9-13.9h22L925.6,39.2z"/>
		<polygon style="clip-path:url(#SVGID_00000021080282209108332180000011693596325335643821_);fill:#FFFFFF;" points="991.4,34.6 
			1016.2,34.6 978.2,168.4 1059.8,168.4 1055.1,184.8 948.7,184.8 		"/>
		<path style="clip-path:url(#SVGID_00000021080282209108332180000011693596325335643821_);fill:#FFFFFF;" d="M1139.3,69.1
			c43.6,0,46.4,27.6,37.4,59.3c-9,31.8-27.9,59.3-71.2,59.3c-43.6,0-46.4-27.6-37.4-59.3C1077.1,96.6,1095.9,69.1,1139.3,69.1
			 M1152,128.4c7-24.4,8.2-45.5-17.2-45.5c-23.9,0-34.9,21-41.9,45.5c-7,24.4-8.2,45.4,16,45.4
			C1133.9,173.9,1144.9,152.8,1152,128.4"/>
		<path style="clip-path:url(#SVGID_00000021080282209108332180000011693596325335643821_);fill:#FFFFFF;" d="M1282.2,177.7
			c-9.6,33.7-33.8,45.9-64.2,45.9c-9.3,0-45.6,0-41.7-28.2h23.6c-1.7,10.3,7.9,14.3,20.3,14.3c30.4,0,34.3-17.5,36.3-25.2l4.2-14.7
			h-0.6c-7.6,9.5-23.4,15.1-38.3,15.1c-43.9,0-34.9-41.5-30.7-56.4c8.7-30.5,27.9-59.3,66.2-59.3c16.3,0,27,8.4,27.6,17.3h0.6
			l4.2-14.3h22.5L1282.2,177.7z M1216.1,128.4c-5.3,18.3-8.2,41.2,15.5,41.2c25.6,0,36-18.1,42.5-41.2c6.2-21.9,7.6-44.2-17.7-44.2
			C1234.4,84.2,1223.7,101.5,1216.1,128.4"/>
		<path style="clip-path:url(#SVGID_00000021080282209108332180000011693596325335643821_);fill:#FFFFFF;" d="M1407.8,177.7
			c-9.6,33.7-33.8,45.9-64.2,45.9c-9.3,0-45.6,0-41.7-28.2h23.6c-1.7,10.3,7.9,14.3,20.3,14.3c30.4,0,34.3-17.5,36.3-25.2l4.2-14.7
			h-0.6c-7.6,9.5-23.4,15.1-38.3,15.1c-43.9,0-34.9-41.5-30.7-56.4c8.7-30.5,27.9-59.3,66.2-59.3c16.3,0,27,8.4,27.6,17.3h0.6
			l4.2-14.3h22.5L1407.8,177.7z M1341.6,128.4c-5.3,18.3-8.2,41.2,15.5,41.2c25.6,0,36-18.1,42.5-41.2c6.2-21.9,7.6-44.2-17.7-44.2
			C1359.9,84.2,1349.2,101.5,1341.6,128.4"/>
		<path style="clip-path:url(#SVGID_00000021080282209108332180000011693596325335643821_);fill:#FFFFFF;" d="M1467.3,130.5
			c-5.1,17.3-12.4,43.3,16.6,43.3c22.5,0,30.7-17.7,32.9-26.1h23.6c-3.4,12-20.8,40-61.9,40c-36.9,0-47-19.1-36-57.9
			c8.2-28.2,24.8-60.8,71.2-60.8c46.2,0,41.9,30.1,34.9,54.3l-2,7.2H1467.3z M1525.9,116.6l1.7-6.1c3.7-12.6,2.5-27.6-18.3-27.6
			c-24.8,0-34.1,22.7-36,29.5l-1.1,4.2H1525.9z"/>
		<path style="clip-path:url(#SVGID_00000021080282209108332180000011693596325335643821_);fill:#FFFFFF;" d="M1585.2,72h23.6
			l-4.8,16.8h0.6c9.9-10.7,21.4-19.8,38.3-19.8c4.8,0,7.9,0.4,10.1,1.3l-5.1,17.3c-2.3-0.2-4.8-0.8-12.4-0.8
			c-11.8,0-33.2,8-38.6,26.7l-20.3,71.3h-23.6L1585.2,72z"/>
		<g style="clip-path:url(#SVGID_00000021080282209108332180000011693596325335643821_);">
			<text transform="matrix(1 0 0 1 1657.0586 68.4641)" class="st5 st6 st7">®</text>
		</g>
		
			<g id="MyFlightLogger_plane.psd_00000107586295832674171080000009014772126105534628_" style="clip-path:url(#SVGID_00000021080282209108332180000011693596325335643821_);">
			
				<image style="overflow:visible;" width="3188" height="3188" id="Layer_1_00000032617541968127652380000000018237995364493745_" xlink:href="D74C95450CCCEF1D.png"  transform="matrix(6.077436e-02 0 0 6.077436e-02 -170.1908 30.5202)">
			</image>
		</g>
	</g>
	<rect x="364" y="0.1" class="st8" width="14.1" height="258.7"/>
	<g class="st2">
		<g>
			<defs>
				<rect id="SVGID_00000178173093866435768800000003692699839448586171_" x="-203.9" y="31.7" width="156.9" height="156.9"/>
			</defs>
			<clipPath id="SVGID_00000004527834905951522650000003362590997619356295_">
				<use xlink:href="#SVGID_00000178173093866435768800000003692699839448586171_"  style="overflow:visible;"/>
			</clipPath>
			<g style="clip-path:url(#SVGID_00000004527834905951522650000003362590997619356295_);">
				<defs>
					<rect id="SVGID_00000098914652363178497140000005367885630440223383_" x="-203.9" y="31.7" width="156.9" height="156.9"/>
				</defs>
				<clipPath id="SVGID_00000156552596357973039740000003100793565933801645_">
					<use xlink:href="#SVGID_00000098914652363178497140000005367885630440223383_"  style="overflow:visible;"/>
				</clipPath>
				<path style="clip-path:url(#SVGID_00000156552596357973039740000003100793565933801645_);fill:#FFFFFF;" d="M-127.9,31.7h5
					c0.1,0,0.2,0.1,0.3,0.1c1.2,0.1,2.4,0.1,3.5,0.2c1.5,0.1,3,0.3,4.5,0.5c3.1,0.4,6.2,1,9.2,1.8c5.8,1.5,11.3,3.7,16.6,6.5
					c2.9,1.5,5.7,3.2,8.4,5.1c4.4,3.1,8.4,6.6,12.1,10.5c1.8,1.9,3.5,3.9,5.1,5.9c3.7,4.8,6.8,9.9,9.2,15.4c2.1,4.7,3.8,9.6,5,14.6
					c0.6,2.6,1.1,5.1,1.4,7.7c0.3,2,0.5,4,0.5,6c0,0.1,0.1,0.2,0.1,0.3v7.5c0,0.2-0.1,0.3-0.1,0.5c0,0.6,0,1.2-0.1,1.7
					c-0.1,1.4-0.3,2.8-0.5,4.2c-0.3,2.1-0.6,4.1-1,6.1c-0.7,3.5-1.7,6.9-2.9,10.2c-1.5,4.1-3.3,8.1-5.4,11.9
					c-3.2,5.7-7.1,11-11.6,15.7c-1.9,2-4,4-6.1,5.8c-4.5,3.8-9.3,7-14.5,9.7c-2.7,1.4-5.5,2.7-8.3,3.7c-4.3,1.6-8.7,2.9-13.2,3.7
					c-1.9,0.4-3.9,0.6-5.9,0.9c-1.6,0.2-3.2,0.3-4.8,0.4c-0.1,0-0.2,0.1-0.3,0.1h-7.5c-0.1,0-0.2-0.1-0.3-0.1
					c-1.6-0.1-3.3-0.2-4.9-0.4c-1.9-0.2-3.8-0.5-5.7-0.8c-4-0.7-7.9-1.8-11.8-3.2c-3.7-1.3-7.3-2.9-10.8-4.8
					c-2.5-1.3-4.9-2.8-7.2-4.4c-3.5-2.4-6.8-5-9.8-7.9c-1.4-1.4-2.8-2.8-4.2-4.3c-2.5-2.7-4.8-5.7-6.8-8.7c-1.6-2.4-3.1-4.9-4.4-7.5
					c-0.4-0.8-0.8-1.5-1.2-2.3c0.2-0.1,0.3-0.1,0.4-0.1c2.2-0.5,4.5-1,6.7-1.6c2.7-0.7,5.4-1.3,8.1-2c3.3-0.9,6.7-1.7,10-2.6
					c3.7-1,7.4-2.1,11.2-3.2c3.8-1.1,7.7-2.3,11.5-3.5c3.4-1.1,6.8-2.1,10.2-3.3c3.3-1.1,6.7-2.2,10-3.4c4.2-1.5,8.5-3,12.7-4.6
					c0.3-0.1,0.7-0.3,1-0.3c2.9-0.5,5.8-1,8.8-1.4c0.2,0,0.4,0,0.6-0.1c-2.1,4.6-4.1,9.1-6.1,13.6c-2,4.5-4,9-6.1,13.5
					c-2.2,4.7-5.9,13.2-6,13.7c0.2-0.2,0.3-0.3,0.4-0.5c0.6-0.8,1.2-1.7,1.8-2.6c1.9-2.8,3.8-5.5,5.7-8.3c1.5-2.2,3.1-4.5,4.6-6.7
					c2.1-3,4.1-6,6.2-9c1.5-2.2,3.1-4.5,4.6-6.7c2.3-3.3,4.5-6.5,6.7-9.8c0.4-0.6,0.9-1,1.5-1.3c2.7-1.2,5.4-2.3,8.1-3.5
					c4.2-1.8,8.4-3.7,12.6-5.5c5.7-2.5,11.3-4.9,17-7.4c1.7-0.8,3.5-1.5,5.2-2.3c0.1,0,0.2-0.1,0.3-0.2c-0.1-0.1-0.3-0.1-0.4,0
					c-1.3,0.2-2.6,0.4-3.9,0.6c-0.5,0.1-1,0.1-1.5,0.1c-1.7,0.3-3.5,0.5-5.2,0.8c-2,0.3-4,0.6-6,0.9c-1.7,0.3-3.5,0.6-5.2,0.8
					c-2,0.3-4,0.6-6,0.9c-1.7,0.3-3.5,0.6-5.2,0.8c-1.8,0.3-3.6,0.6-5.4,0.9c-0.7,0.1-1.3,0.2-1.9,0.3c0,0-0.1-0.1-0.1-0.1
					c0,0,0-0.1,0-0.1c0-0.1,0-0.1-0.1-0.2c-3.7-13-7.4-26-11-38.9c-0.2-0.7-0.4-1.4-0.6-2.2c0-0.1,0-0.1,0-0.2c0,0,0-0.1,0-0.1
					c0,0,0,0,0,0c0,0,0,0-0.1,0c0,0.1,0,0.1,0,0.2c0,1.4-0.1,2.8-0.1,4.2c0,1.4-0.1,2.8-0.1,4.2c0,1.4-0.1,2.8-0.1,4.3
					c0,1.4-0.1,2.8-0.1,4.2c0,1.4-0.1,2.8-0.1,4.3c0,1.4-0.1,2.8-0.1,4.3c0,1.4-0.1,2.8-0.1,4.2c0,1.4-0.1,2.9-0.1,4.3
					c0,1.4-0.1,2.8-0.1,4.1c0,1.5-0.1,2.9-0.1,4.4c0,0.9,0,1.7,0,2.6c0,0.3-0.1,0.4-0.3,0.5c-0.1,0-0.2,0.1-0.3,0.1
					c-2.5,1.1-4.9,2.1-7.4,3.2c-0.9,0.4-1.8,0.9-2.8,1.1c-4,1.1-8.1,2.2-12.1,3.2c-5.5,1.4-11.1,2.7-16.7,4
					c-3.8,0.9-7.7,1.7-11.6,2.5c-3.1,0.6-6.2,1.2-9.3,1.8c-2.8,0.5-5.7,1.1-8.5,1.6c-2.2,0.4-4.5,0.7-6.7,1.1
					c-2.5,0.4-5,0.8-7.6,1.2c-1.7,0.3-3.4,0.5-5.2,0.7c-1.7,0.2-3.4,0.5-5.1,0.7c-1.2,0.2-2.5,0.3-3.7,0.5c-0.7,0.1-1.4,0.1-2.1,0.2
					c-0.2-0.8-0.4-1.6-0.5-2.3c-0.3-1.7-0.6-3.5-0.8-5.2c-0.2-1.6-0.3-3.2-0.5-4.8c-0.1-0.7-0.1-1.4-0.1-2.1c0-0.1-0.1-0.2-0.1-0.3
					c0-1.7,0-3.3,0-5c0-0.1,0.1-0.2,0.1-0.3c0-0.4,0.1-0.8,0.1-1.2c0.1-1,0.1-2,0.2-3c0.2-1.6,0.3-3.1,0.5-4.7
					c0.4-2.9,1-5.7,1.7-8.5c1.3-4.8,3-9.5,5.1-13.9c1.7-3.6,3.7-7,6-10.3c2.4-3.5,5-6.8,8-9.8c1.5-1.5,3-3,4.6-4.4
					c2.7-2.4,5.5-4.6,8.5-6.6c3.8-2.5,7.8-4.7,11.9-6.6c6.3-2.8,12.8-4.7,19.6-5.8c3.1-0.5,6.2-0.8,9.3-0.9
					C-128.1,31.8-128,31.8-127.9,31.7"/>
			</g>
		</g>
	</g>
	<rect x="-4" y="31.7" class="st21" width="350.8" height="239.9"/>
	<text transform="matrix(1 0 0 1 -3.9712 186.3827)" class="st8 st23 st24">my</text>
</g>
<g id="New_white_no_icon">
	<g>
		<defs>
			<rect id="SVGID_00000041991950706212797590000010933821984361395600_" x="114.7" y="-12.2" width="1672" height="242"/>
		</defs>
		<clipPath id="SVGID_00000139294457315384014240000015686255498204828060_">
			<use xlink:href="#SVGID_00000041991950706212797590000010933821984361395600_"  style="overflow:visible;"/>
		</clipPath>
		<polygon style="clip-path:url(#SVGID_00000139294457315384014240000015686255498204828060_);fill:#FFFFFF;" points="451.1,34.1 
			554.9,34.1 550.2,50.6 471,50.6 457.8,97.7 532.4,97.7 527.6,114.1 453,114.1 433,184.4 408.3,184.4 		"/>
		<polygon style="clip-path:url(#SVGID_00000139294457315384014240000015686255498204828060_);fill:#FFFFFF;" points="568.3,34.1 
			591.9,34.1 549.1,184.4 525.5,184.4 		"/>
		<path style="clip-path:url(#SVGID_00000139294457315384014240000015686255498204828060_);fill:#FFFFFF;" d="M609.7,71.6h23.6
			l-32.1,112.8h-23.6L609.7,71.6z M620.4,34.1h23.6l-5.9,20.2h-23.6L620.4,34.1z"/>
		<path style="clip-path:url(#SVGID_00000139294457315384014240000015686255498204828060_);fill:#FFFFFF;" d="M728.9,177.2
			c-9.6,33.7-33.8,45.9-64.2,45.9c-9.3,0-45.6,0-41.7-28.2h23.6c-1.7,10.3,7.9,14.3,20.3,14.3c30.4,0,34.3-17.5,36.3-25.2l4.2-14.7
			H707c-7.6,9.5-23.4,15.1-38.3,15.1c-43.9,0-34.9-41.5-30.7-56.4c8.7-30.5,27.9-59.3,66.2-59.3c16.3,0,27,8.4,27.6,17.3h0.6
			l4.2-14.3h22.5L728.9,177.2z M662.8,128c-5.4,18.3-8.2,41.2,15.5,41.2c25.6,0,36-18.1,42.5-41.2c6.2-21.9,7.6-44.2-17.7-44.2
			C681.1,83.8,670.4,101.1,662.8,128"/>
		<path style="clip-path:url(#SVGID_00000139294457315384014240000015686255498204828060_);fill:#FFFFFF;" d="M796.8,34.1h23.6
			l-14.4,50.3h0.6c8.7-9.3,27.3-15.8,40.8-15.8c38.8,0,32.4,22.5,28.7,35.8l-22.8,80h-23.6l22.2-77.9c2.3-8.6,5.6-22.7-15.8-22.7
			c-12.7,0-31.8,6.3-36.3,22.7l-22.2,77.9H754L796.8,34.1z"/>
		<path style="clip-path:url(#SVGID_00000139294457315384014240000015686255498204828060_);fill:#FFFFFF;" d="M925.6,38.8h23.6
			l-9.3,32.8h26.2l-3.9,13.9H936l-20.6,72.4c-2.5,9-0.6,12.6,11.8,12.6c5.1,0,7.9-0.4,10.7-0.6l-4.2,14.5c-3.1,0.4-9.6,1.3-19.4,1.3
			c-24.5,0-28.4-7.6-24.2-22.3l22.2-77.9h-22l3.9-13.9h22L925.6,38.8z"/>
		<polygon style="clip-path:url(#SVGID_00000139294457315384014240000015686255498204828060_);fill:#FFFFFF;" points="991.4,34.1 
			1016.2,34.1 978.2,168 1059.8,168 1055.1,184.4 948.7,184.4 		"/>
		<path style="clip-path:url(#SVGID_00000139294457315384014240000015686255498204828060_);fill:#FFFFFF;" d="M1139.3,68.7
			c43.6,0,46.4,27.6,37.4,59.3c-9,31.8-27.9,59.3-71.2,59.3c-43.6,0-46.4-27.6-37.4-59.3C1077.1,96.2,1095.9,68.7,1139.3,68.7
			 M1152,128c7-24.4,8.2-45.5-17.2-45.5c-23.9,0-34.9,21-41.9,45.5c-7,24.4-8.2,45.4,16,45.4C1133.9,173.4,1144.9,152.4,1152,128"/>
		<path style="clip-path:url(#SVGID_00000139294457315384014240000015686255498204828060_);fill:#FFFFFF;" d="M1282.2,177.2
			c-9.6,33.7-33.8,45.9-64.2,45.9c-9.3,0-45.6,0-41.7-28.2h23.6c-1.7,10.3,7.9,14.3,20.3,14.3c30.4,0,34.3-17.5,36.3-25.2l4.2-14.7
			h-0.6c-7.6,9.5-23.4,15.1-38.3,15.1c-43.9,0-34.9-41.5-30.7-56.4c8.7-30.5,27.9-59.3,66.2-59.3c16.3,0,27,8.4,27.6,17.3h0.6
			l4.2-14.3h22.5L1282.2,177.2z M1216.1,128c-5.3,18.3-8.2,41.2,15.5,41.2c25.6,0,36-18.1,42.5-41.2c6.2-21.9,7.6-44.2-17.7-44.2
			C1234.4,83.8,1223.7,101.1,1216.1,128"/>
		<path style="clip-path:url(#SVGID_00000139294457315384014240000015686255498204828060_);fill:#FFFFFF;" d="M1407.8,177.2
			c-9.6,33.7-33.8,45.9-64.2,45.9c-9.3,0-45.6,0-41.7-28.2h23.6c-1.7,10.3,7.9,14.3,20.3,14.3c30.4,0,34.3-17.5,36.3-25.2l4.2-14.7
			h-0.6c-7.6,9.5-23.4,15.1-38.3,15.1c-43.9,0-34.9-41.5-30.7-56.4c8.7-30.5,27.9-59.3,66.2-59.3c16.3,0,27,8.4,27.6,17.3h0.6
			l4.2-14.3h22.5L1407.8,177.2z M1341.6,128c-5.3,18.3-8.2,41.2,15.5,41.2c25.6,0,36-18.1,42.5-41.2c6.2-21.9,7.6-44.2-17.7-44.2
			C1359.9,83.8,1349.2,101.1,1341.6,128"/>
		<path style="clip-path:url(#SVGID_00000139294457315384014240000015686255498204828060_);fill:#FFFFFF;" d="M1467.3,130.1
			c-5.1,17.3-12.4,43.3,16.6,43.3c22.5,0,30.7-17.7,32.9-26.1h23.6c-3.4,12-20.8,40-61.9,40c-36.9,0-47-19.1-36-57.9
			c8.2-28.2,24.8-60.8,71.2-60.8c46.2,0,41.9,30.1,34.9,54.3l-2,7.2H1467.3z M1525.9,116.2l1.7-6.1c3.7-12.6,2.5-27.6-18.3-27.6
			c-24.8,0-34.1,22.7-36,29.5l-1.1,4.2H1525.9z"/>
		<path style="clip-path:url(#SVGID_00000139294457315384014240000015686255498204828060_);fill:#FFFFFF;" d="M1585.2,71.6h23.6
			l-4.8,16.8h0.6c9.9-10.7,21.4-19.8,38.3-19.8c4.8,0,7.9,0.4,10.1,1.3l-5.1,17.3c-2.3-0.2-4.8-0.8-12.4-0.8
			c-11.8,0-33.2,8-38.6,26.7l-20.3,71.3h-23.6L1585.2,71.6z"/>
		<g style="clip-path:url(#SVGID_00000139294457315384014240000015686255498204828060_);">
			<text transform="matrix(1 0 0 1 1657.0586 68.0384)" class="st5 st6 st7">®</text>
		</g>
		
			<g id="MyFlightLogger_plane.psd_00000150810436884980210720000008751834317286146209_" style="clip-path:url(#SVGID_00000139294457315384014240000015686255498204828060_);">
			
				<image style="overflow:visible;" width="3188" height="3188" id="Layer_1_00000160902330818546206120000005022276729859077030_" xlink:href="D74C95450CCCEF1E.png"  transform="matrix(6.077436e-02 0 0 6.077436e-02 -170.1908 30.0946)">
			</image>
		</g>
	</g>
	<rect x="364" y="-0.3" class="st5" width="14.1" height="258.7"/>
	<g>
		<path class="st5" d="M174.9,121.6c0-21.1-11.5-32-28.8-32c-17.6,0-29.1,10.9-29.1,32V186H93.4v-64.4c0-21.1-11.5-32-28.8-32
			c-17.6,0-29.1,10.9-29.1,32V186H11.7V70.8h23.8V84c7.7-9.4,20.3-15,34.1-15c18.2,0,33.4,7.7,41.4,22.8c7.1-14,23.4-22.8,40.1-22.8
			c27,0,47.4,16.9,47.4,49.1V186h-23.6V121.6z"/>
		<path class="st5" d="M307.9,70.8h24.7l-70.6,169.3h-24.7l23.4-56L215.3,70.8h26.5l32.4,87.8L307.9,70.8z"/>
	</g>
</g>
<g id="Now_colored_no_icon" class="st0">
	<g class="st2">
		<defs>
			<rect id="SVGID_00000165228493362115878290000003824965687952005518_" x="114.7" y="-11.4" width="1672" height="242"/>
		</defs>
		<clipPath id="SVGID_00000015336841542493291240000017280138429017475258_">
			<use xlink:href="#SVGID_00000165228493362115878290000003824965687952005518_"  style="overflow:visible;"/>
		</clipPath>
		<polygon style="clip-path:url(#SVGID_00000015336841542493291240000017280138429017475258_);fill:#102A48;" points="451.1,34.9 
			554.9,34.9 550.2,51.3 471,51.3 457.8,98.5 532.4,98.5 527.6,114.9 453,114.9 433,185.2 408.3,185.2 		"/>
		<polygon style="clip-path:url(#SVGID_00000015336841542493291240000017280138429017475258_);fill:#102A48;" points="568.3,34.9 
			591.9,34.9 549.1,185.2 525.5,185.2 		"/>
		<path style="clip-path:url(#SVGID_00000015336841542493291240000017280138429017475258_);fill:#102A48;" d="M609.7,72.4h23.6
			l-32.1,112.8h-23.6L609.7,72.4z M620.4,34.9h23.6l-5.9,20.2h-23.6L620.4,34.9z"/>
		<path style="clip-path:url(#SVGID_00000015336841542493291240000017280138429017475258_);fill:#102A48;" d="M728.9,178
			c-9.6,33.7-33.8,45.9-64.2,45.9c-9.3,0-45.6,0-41.7-28.2h23.6C645,206,654.6,210,667,210c30.4,0,34.3-17.5,36.3-25.2l4.2-14.7H707
			c-7.6,9.5-23.4,15.1-38.3,15.1c-43.9,0-34.9-41.5-30.7-56.4c8.7-30.5,27.9-59.3,66.2-59.3c16.3,0,27,8.4,27.6,17.3h0.6l4.2-14.3
			h22.5L728.9,178z M662.8,128.8c-5.4,18.3-8.2,41.2,15.5,41.2c25.6,0,36-18.1,42.5-41.2c6.2-21.9,7.6-44.2-17.7-44.2
			C681.1,84.6,670.4,101.8,662.8,128.8"/>
		<path style="clip-path:url(#SVGID_00000015336841542493291240000017280138429017475258_);fill:#102A48;" d="M796.8,34.9h23.6
			l-14.4,50.3h0.6c8.7-9.3,27.3-15.8,40.8-15.8c38.8,0,32.4,22.5,28.7,35.8l-22.8,80h-23.6l22.2-77.9c2.3-8.6,5.6-22.7-15.8-22.7
			c-12.7,0-31.8,6.3-36.3,22.7l-22.2,77.9H754L796.8,34.9z"/>
		<path style="clip-path:url(#SVGID_00000015336841542493291240000017280138429017475258_);fill:#102A48;" d="M925.6,39.5h23.6
			l-9.3,32.8h26.2l-3.9,13.9H936l-20.6,72.4c-2.5,9-0.6,12.6,11.8,12.6c5.1,0,7.9-0.4,10.7-0.6l-4.2,14.5c-3.1,0.4-9.6,1.3-19.4,1.3
			c-24.5,0-28.4-7.6-24.2-22.3l22.2-77.9h-22l3.9-13.9h22L925.6,39.5z"/>
		<polygon style="clip-path:url(#SVGID_00000015336841542493291240000017280138429017475258_);fill:#102A48;" points="991.4,34.9 
			1016.2,34.9 978.2,168.7 1059.8,168.7 1055.1,185.2 948.7,185.2 		"/>
		<path style="clip-path:url(#SVGID_00000015336841542493291240000017280138429017475258_);fill:#102A48;" d="M1139.3,69.4
			c43.6,0,46.4,27.6,37.4,59.3c-9,31.8-27.9,59.3-71.2,59.3c-43.6,0-46.4-27.6-37.4-59.3C1077.1,97,1095.9,69.4,1139.3,69.4
			 M1152,128.8c7-24.4,8.2-45.5-17.2-45.5c-23.9,0-34.9,21-41.9,45.5c-7,24.4-8.2,45.4,16,45.4
			C1133.9,174.2,1144.9,153.2,1152,128.8"/>
		<path style="clip-path:url(#SVGID_00000015336841542493291240000017280138429017475258_);fill:#102A48;" d="M1282.2,178
			c-9.6,33.7-33.8,45.9-64.2,45.9c-9.3,0-45.6,0-41.7-28.2h23.6c-1.7,10.3,7.9,14.3,20.3,14.3c30.4,0,34.3-17.5,36.3-25.2l4.2-14.7
			h-0.6c-7.6,9.5-23.4,15.1-38.3,15.1c-43.9,0-34.9-41.5-30.7-56.4c8.7-30.5,27.9-59.3,66.2-59.3c16.3,0,27,8.4,27.6,17.3h0.6
			l4.2-14.3h22.5L1282.2,178z M1216.1,128.8c-5.3,18.3-8.2,41.2,15.5,41.2c25.6,0,36-18.1,42.5-41.2c6.2-21.9,7.6-44.2-17.7-44.2
			C1234.4,84.6,1223.7,101.8,1216.1,128.8"/>
		<path style="clip-path:url(#SVGID_00000015336841542493291240000017280138429017475258_);fill:#102A48;" d="M1407.8,178
			c-9.6,33.7-33.8,45.9-64.2,45.9c-9.3,0-45.6,0-41.7-28.2h23.6c-1.7,10.3,7.9,14.3,20.3,14.3c30.4,0,34.3-17.5,36.3-25.2l4.2-14.7
			h-0.6c-7.6,9.5-23.4,15.1-38.3,15.1c-43.9,0-34.9-41.5-30.7-56.4c8.7-30.5,27.9-59.3,66.2-59.3c16.3,0,27,8.4,27.6,17.3h0.6
			l4.2-14.3h22.5L1407.8,178z M1341.6,128.8c-5.3,18.3-8.2,41.2,15.5,41.2c25.6,0,36-18.1,42.5-41.2c6.2-21.9,7.6-44.2-17.7-44.2
			C1359.9,84.6,1349.2,101.8,1341.6,128.8"/>
		<path style="clip-path:url(#SVGID_00000015336841542493291240000017280138429017475258_);fill:#102A48;" d="M1467.3,130.9
			c-5.1,17.3-12.4,43.3,16.6,43.3c22.5,0,30.7-17.7,32.9-26.1h23.6c-3.4,12-20.8,40-61.9,40c-36.9,0-47-19.1-36-57.9
			c8.2-28.2,24.8-60.8,71.2-60.8c46.2,0,41.9,30.1,34.9,54.3l-2,7.2H1467.3z M1525.9,117l1.7-6.1c3.7-12.6,2.5-27.6-18.3-27.6
			c-24.8,0-34.1,22.7-36,29.5l-1.1,4.2H1525.9z"/>
		<path style="clip-path:url(#SVGID_00000015336841542493291240000017280138429017475258_);fill:#102A48;" d="M1585.2,72.4h23.6
			l-4.8,16.8h0.6c9.9-10.7,21.4-19.8,38.3-19.8c4.8,0,7.9,0.4,10.1,1.3l-5.1,17.3c-2.3-0.2-4.8-0.8-12.4-0.8
			c-11.8,0-33.2,8-38.6,26.7l-20.3,71.3h-23.6L1585.2,72.4z"/>
		<g style="clip-path:url(#SVGID_00000015336841542493291240000017280138429017475258_);">
			<text transform="matrix(1 0 0 1 1657.0586 68.8162)" class="st14 st6 st7">®</text>
		</g>
		
			<g id="MyFlightLogger_plane.psd_00000044897553181482850370000009060766966107742654_" style="clip-path:url(#SVGID_00000015336841542493291240000017280138429017475258_);">
			
				<image style="overflow:visible;" width="3188" height="3188" id="Layer_1_00000129192553555907536720000002769796008559519931_" xlink:href="D74C95450CCCEF1F.png"  transform="matrix(6.077436e-02 0 0 6.077436e-02 -170.1908 30.8724)">
			</image>
		</g>
	</g>
	<rect x="364" y="0.5" class="st13" width="14.1" height="258.7"/>
	<g class="st2">
		<path class="st33" d="M174.9,122.4c0-21.1-11.5-32-28.8-32c-17.6,0-29.1,10.9-29.1,32v64.4H93.4v-64.4c0-21.1-11.5-32-28.8-32
			c-17.6,0-29.1,10.9-29.1,32v64.4H11.7V71.6h23.8v13.2c7.7-9.4,20.3-15,34.1-15c18.2,0,33.4,7.7,41.4,22.8
			c7.1-14,23.4-22.8,40.1-22.8c27,0,47.4,16.9,47.4,49.1v67.9h-23.6V122.4z"/>
		<path class="st33" d="M307.9,71.6h24.7l-70.6,169.3h-24.7l23.4-56L215.3,71.6h26.5l32.4,87.8L307.9,71.6z"/>
	</g>
</g>
</svg>
